<?xml version="1.0" encoding="iso-8859-1"?>
<!-- Uploaded to: SVG Repo, www.svgrepo.com, Generator: SVG Repo Mixer Tools -->
<!DOCTYPE svg PUBLIC "-//W3C//DTD SVG 1.1//EN" "http://www.w3.org/Graphics/SVG/1.1/DTD/svg11.dtd">
<svg fill="#000000" height="800px" width="800px" version="1.1" id="Capa_1" xmlns="http://www.w3.org/2000/svg" xmlns:xlink="http://www.w3.org/1999/xlink" 
	 viewBox="0 0 296.998 296.998" xml:space="preserve">
<path d="M241.703,47.697c-21.6-27.553-54.625-50.085-98.118-47.494c-26.356,1.568-46.71,20.594-58.861,36.348
	C73.248,51.43,69.234,71.845,72.992,95.834c-4.964,5.687-5.906,16.047-1.908,27.387c2.097,5.94,5.32,11.211,9.077,14.841
	c3.101,2.996,7.247,4.808,10.637,5.331c3.541,7.109,6.701,14.189,13.701,20.548v19.56H80.984c-14.071,0-28.137,11.465-39.603,31.23
	c-9.286,16.008-15.286,35.679-15.286,49.666c0,2.983,1.724,5.843,4.425,7.11c39.618,18.598,80.066,24.235,114.295,24.235
	c37.965,0,68.277-6.813,81.297-10.325c0.005-0.002,0.011,0.014,0.011,0.014c6.662,6.281,11.334,9.673,11.997,10.143
	c1.319,0.936,2.879,1.425,4.456,1.425c0.828,0,1.661-0.132,2.467-0.404c2.336-0.79,4.151-2.652,4.882-5.01
	c0.526-1.697,12.943-42.139,18.425-92.333C275.827,130.78,266.861,79.789,241.703,47.697z M96.996,127.795
	c-1.652-0.519-3.415-0.464-5.013,0.137c-1.379-0.924-4.336-4.02-6.387-9.831c-1.912-5.422-1.729-9.492-1.294-11.311
	c0.768-0.304,1.496-0.717,2.145-1.265c1.916-1.619,14.231-12.332,21.49-25.824c2.341,2.507,5.221,5.089,8.76,7.659
	c19.011,13.807,48.372,20.727,87.358,20.63c0.234,2.132,0.08,5.658-1.489,10.108c-2.069,5.863-5.058,8.961-6.422,9.855
	c-1.591-0.521-3.318-0.516-4.921,0.039c-2.015,0.697-3.648,2.198-4.514,4.146c-8.284,18.642-24.378,40.41-42.469,40.41
	c-18.131,0-34.235-21.834-42.518-40.531C100.828,129.997,99.105,128.459,96.996,127.795z M146.31,222.24
	c-12.931-0.157-26.293-7.74-39.321-23.74h3.749c4.25,0,8.761-1.895,8.761-6.145v-13.456c8,5.57,15.913,9.041,25.275,9.041
	c9.196,0,17.469-3.354,25.132-8.754c1.703,10.309,4.023,19.941,7.012,28.884C172.342,212.722,160.909,222.24,146.31,222.24z
	 M146.265,237.049c16.004,0,28.77-7.31,36.456-13.727c9.131,20.936,20.833,37.023,31.137,48.847
	c-30.241,7.006-102.205,17.766-172.092-13.08C44.312,235.917,63.67,198.5,80.984,198.5h6.156
	C105.712,224.5,125.745,236.875,146.265,237.049z M183.363,166.45c5.971-6.992,11.061-15.033,15.078-23.107
	c1.322-0.236,2.652-0.67,3.969-1.298c6.045-2.888,11.528-9.926,14.669-18.825c5.184-14.698,2.095-27.789-7.346-31.127
	c-43.55,1.769-71.536-8.821-82.563-16.312c-11.44-7.769-13.803-15.225-14.057-16.162c-0.632-3.94-4.155-6.594-8.144-6.288
	c-4.016,0.301-7.092,3.812-7.092,7.838c0,6.821-5.264,15.061-10.781,21.712c-0.695-15.01,2.618-27.601,9.813-36.93
	c9.485-12.298,25.496-29.071,47.588-30.386c38.165-2.261,66.786,18.281,85.084,41.614c45.918,58.552,18.718,180.798,8.8,218.528
	C222.522,260.997,189.692,223.398,183.363,166.45z"/>
</svg>