<?xml version="1.0" encoding="iso-8859-1"?>
<!-- Uploaded to: SVG Repo, www.svgrepo.com, Generator: SVG Repo Mixer Tools -->
<svg fill="#000000" height="800px" width="800px" version="1.1" id="Layer_1" xmlns="http://www.w3.org/2000/svg" xmlns:xlink="http://www.w3.org/1999/xlink" 
	 viewBox="0 0 479.998 479.998" xml:space="preserve">
<g id="XMLID_1439_">
	<g>
		<path d="M365.299,51.521L285.496,1.645c-1.997-1.429-4.942-1.667-5.715-1.644h-79.564c-0.775-0.016-3.608,0.23-5.715,1.644
			l-79.803,49.876c-2.924,1.828-4.7,5.032-4.7,8.48v229.998c0,5.522,4.478,10,10,10h40v10c0,0.415,0.025,0.829,0.077,1.24
			l20,159.999c0.626,5.005,4.88,8.76,9.923,8.76h100c5.043,0,9.297-3.755,9.923-8.76l20-159.999c0.052-0.411,0.077-0.825,0.077-1.24
			v-10h40c5.522,0,10-4.478,10-10V60.001C369.999,56.553,368.222,53.349,365.299,51.521z M229.999,459.998h-31.172l-18.828-150.621
			v-35.62l50-57.143V459.998z M229.999,186.242l-50,57.143V130c0-5.522-4.478-10-10-10c-5.522,0-10,4.478-10,10v149.999h-30v-30h10
			c5.522,0,10-4.478,10-10c0-5.522-4.478-10-10-10h-10V65.544l63.409-39.631l26.847,116.336c1.047,4.537,5.088,7.751,9.744,7.751
			V186.242z M239.999,130h-2.045L212.569,20.001h54.859L242.044,130H239.999z M299.999,309.377l-18.828,150.621h-31.172V216.614
			l50,57.143V309.377z M349.999,280h-30V130c0-5.522-4.478-10-10-10c-5.522,0-10,4.478-10,10v113.385l-50-57.143V150
			c4.656,0,8.697-3.214,9.744-7.751L267.184,110h2.814c5.522,0,10-4.478,10-10c0-4.921-3.554-9.011-8.234-9.845l14.825-64.243
			l63.409,39.631V230h-9.999c-5.522,0-10,4.478-10,10c0,5.522,4.478,10,10,10h10V280z"/>
	</g>
</g>
</svg>