<?xml version="1.0" encoding="iso-8859-1"?>
<!-- Uploaded to: SVG Repo, www.svgrepo.com, Generator: SVG Repo Mixer Tools -->
<!DOCTYPE svg PUBLIC "-//W3C//DTD SVG 1.1//EN" "http://www.w3.org/Graphics/SVG/1.1/DTD/svg11.dtd">
<svg fill="#000000" height="800px" width="800px" version="1.1" id="Capa_1" xmlns="http://www.w3.org/2000/svg" xmlns:xlink="http://www.w3.org/1999/xlink" 
	 viewBox="0 0 297 297" xml:space="preserve">
<path d="M255.178,232.659c11.097-57.083-0.951-100.073-12.946-126.243c-9.231-20.143-20.057-33.577-26.057-40.164V48.908
	c0-21.473-17.24-39.068-38.761-39.068c-0.694,0-1.267,0.02-1.98,0.06C167.889,3.491,158.652,0,148.621,0
	c-10.031,0-19.662,3.524-27.239,9.993c-0.652-0.024-1.388-0.035-2.125-0.035c-21.524,0-39.082,17.404-39.082,38.95v13.864
	c-4,4.175-17.627,18.812-29.007,43.644c-11.93,26.028-22.651,74.568-11.816,131.461c-3.965,9.21-6.207,18.77-6.207,27.142
	c0,2.917,1.694,5.57,4.334,6.81c40.939,19.219,79.544,25.173,111.666,25.172c16.908,0,32.026-1.65,44.735-3.885
	c40.027-7.037,65.092-20.95,66.14-21.539c2.37-1.332,3.836-3.839,3.836-6.558C263.856,255.051,260.652,243.398,255.178,232.659z
	 M95.439,87.929L95.439,87.929c1-9.99,3.692-18.376,8.643-24.323c8.498-10.208,22.093-15.251,44.093-15.42v-0.003
	c17,0,32.598,5.084,41.567,15.111c12.24,13.684,14.217,33.673,14.256,44.185c-65.35-4.333-78.127-26.198-78.993-27.835
	c-0.967-2.88-3.48-4.692-6.527-4.896c-3.049-0.223-5.889,1.711-7.21,4.508c-4.899,10.374-10.937,18.658-15.978,24.533
	C94.867,98.368,95.073,92.49,95.439,87.929z M94.488,125.813c0.637-0.504,13.581-10.882,24.81-29.662
	c10.847,10.096,35.093,23.722,87.826,26.575c0.253,2.063,0.129,5.575-1.438,10.018c-2.024,5.732-4.945,8.761-6.278,9.636
	c-1.556-0.51-3.244-0.505-4.811,0.038c-1.969,0.682-3.566,2.149-4.412,4.054c-8.099,18.225-23.834,39.507-41.52,39.507
	c-17.724,0-33.469-21.346-41.566-39.626c-0.877-1.978-2.563-3.482-4.627-4.13c-1.613-0.507-3.335-0.45-4.894,0.134
	c-1.351-0.903-4.24-3.929-6.245-9.61c-0.696-1.974-1.104-3.761-1.325-5.324C91.61,127.381,93.189,126.841,94.488,125.813z
	 M115.91,212.5c4.155,0,7.266-3.006,7.266-7.161v-13.156c8,5.446,16.001,8.84,25.154,8.84c9.429,0,17.846-3.596,25.846-9.336v13.652
	c0,4.155,3.779,7.161,7.935,7.161h28.085c9.764,0,19.892,8.577,27.324,19.67c-19.346,1.353-61.442,7.032-89.011,30.101
	c-27.568-23.068-69.666-28.794-89.011-30.147C66.93,221.032,77.058,212.5,86.822,212.5H115.91z M242.851,214.459
	c-9.839-10.887-21.206-16.959-32.656-16.959h-21.02v-20.822c5-6.003,8.945-12.617,12.249-19.254c1.293-0.231,2.707-0.656,3.994-1.27
	c5.909-2.823,11.327-9.703,14.397-18.403c3.536-10.021,3.144-19.505-0.77-25.342c0.199-4.087,0.265-11.032-0.851-19.199
	c3.594,5.611,7.392,12.256,10.935,20.079C238.949,134.974,248.581,169.207,242.851,214.459z M119.251,25.003
	c1.55,0,2.786,0.066,3.694,0.201c2.378,0.354,4.795-0.446,6.481-2.152c5.102-5.163,12.021-8.007,19.216-8.007
	c7.229,0,13.875,2.827,18.948,7.96c1.686,1.705,4.091,2.501,6.461,2.152c1.192-0.178,2.202-0.271,3.384-0.271
	c13.226,0,23.74,10.845,23.74,24.022v4.911c0-0.158-0.268-0.321-0.406-0.479c-11.949-13.405-30.594-20.204-52.594-20.204v0.004
	c-25,0.19-42,6.067-53,17.921v-2.153C95.175,35.657,106.023,25.003,119.251,25.003z M80.508,86.196
	c-1,6.74-0.543,15.067,0.319,23.14c-6.317,5.012-7.967,16.127-3.634,28.415c2.05,5.809,5.176,10.961,8.849,14.51
	c3.031,2.928,6.253,4.697,9.567,5.209c3.462,6.95,7.566,13.873,12.566,20.089V197.5H86.822c-12.572,0-24.993,7.284-35.45,20.3
	c-6.651-46.911,3.268-82.215,13.328-104.431C69.869,101.954,75.508,92.869,80.508,86.196z M191.276,278.297
	c-33.809,5.945-85.667,7.493-142.777-17.974c0.516-4.297,1.707-8.817,3.408-13.294c12.382,0.443,64.36,3.91,91.282,30.832
	c1.469,1.468,3.395,2.203,5.319,2.203c1.925,0,3.851-0.735,5.319-2.203c26.858-26.858,78.896-30.372,91.283-30.829
	c1.73,4.551,2.932,9.148,3.434,13.509C240.236,264.527,219.765,273.289,191.276,278.297z"/>
</svg>