<?xml version="1.0" encoding="iso-8859-1"?>
<!-- Uploaded to: SVG Repo, www.svgrepo.com, Generator: SVG Repo Mixer Tools -->
<svg fill="#000000" version="1.1" id="Layer_1" xmlns="http://www.w3.org/2000/svg" xmlns:xlink="http://www.w3.org/1999/xlink" 
	 viewBox="0 0 512 512" xml:space="preserve">
<g>
	<g>
		<path d="M385.77,236.55c-5.477,0-10.359,1.422-15.009,4.42c-4.792-2.968-10.04-4.42-15.904-4.42
			c-12.407,0-21.071,9.596-21.071,23.337c0,5.801,1.736,9.311,2.884,11.634l0.062,0.123c4.477,9.07,25.142,26.466,29.239,29.861
			l4.839,4.011l4.849-3.999c5.811-4.793,25.105-21.118,29.306-29.984l0.107-0.226c1.052-2.217,2.816-5.928,2.816-11.419
			C407.889,246.582,398.38,236.55,385.77,236.55z M391.337,264.779l-0.115,0.241c-1.615,3.407-11.043,12.585-20.388,20.664
			c-9.308-8.084-18.749-17.299-20.466-20.774l-0.064-0.131c-0.788-1.594-1.309-2.646-1.309-4.893c0-2.443,0.571-8.129,5.863-8.129
			c4.24,0,7.473,1.312,10.813,4.387l5.163,4.753l5.151-4.765c3.404-3.148,6.147-4.375,9.785-4.375c4.774,0,6.911,4.083,6.911,8.129
			C392.682,261.948,392.089,263.197,391.337,264.779z"/>
	</g>
</g>
<g>
	<g>
		<path d="M510.423,82.862h-29.65V65.685h-15.208v17.177h-18.289V65.685h-15.208v17.177h-18.29V65.685H398.57v17.177h-18.289V65.685
			h-15.208v17.177h-18.29V65.685h-15.208v17.177h-18.289V65.685h-15.208v17.177h-18.29V65.685h-15.208v17.177H246.29V65.685h-15.208
			v17.177h-18.29V65.685h-15.208v17.177h-18.289V65.685h-15.208v17.177h-18.29V65.685h-15.208v17.177h-18.289V65.685H97.091v17.177
			h-18.29V65.685H63.593v17.177H45.304V65.685H30.096v17.177H0v83.641v279.813h512V82.862H510.423z M15.208,98.07h14.888v17.177
			h15.208V98.07h18.289v17.177h15.208V98.07h18.29v17.177h15.208V98.07h18.289v17.177h15.208V98.07h18.29v17.177h15.208V98.07
			h18.289v17.177h15.208V98.07h18.29v17.177h15.208V98.07h18.289v17.177h15.208V98.07h18.29v17.177h15.208V98.07h18.289v17.177
			h15.208V98.07h18.29v17.177h15.208V98.07h18.289v17.177h15.208V98.07h18.29v17.177h15.208V98.07h18.289v17.177h15.208V98.07
			h14.442v53.225H15.208V98.07z M496.792,431.107H15.208V166.503h481.584V431.107z"/>
	</g>
</g>
<g>
	<g>
		<rect x="38.831" y="200.574" width="51.545" height="15.208"/>
	</g>
</g>
<g>
	<g>
		<rect x="115.388" y="200.574" width="51.544" height="15.208"/>
	</g>
</g>
<g>
	<g>
		<rect x="191.946" y="200.574" width="51.544" height="15.208"/>
	</g>
</g>
<g>
	<g>
		<rect x="268.503" y="200.574" width="51.544" height="15.208"/>
	</g>
</g>
<g>
	<g>
		<rect x="345.07" y="200.574" width="51.544" height="15.208"/>
	</g>
</g>
<g>
	<g>
		<rect x="421.628" y="200.574" width="51.544" height="15.208"/>
	</g>
</g>
<g>
	<g>
		<rect x="38.831" y="262.298" width="51.545" height="15.208"/>
	</g>
</g>
<g>
	<g>
		<rect x="115.388" y="262.298" width="51.544" height="15.208"/>
	</g>
</g>
<g>
	<g>
		<rect x="191.946" y="262.298" width="51.544" height="15.208"/>
	</g>
</g>
<g>
	<g>
		<rect x="268.503" y="262.298" width="51.544" height="15.208"/>
	</g>
</g>
<g>
	<g>
		<rect x="421.628" y="262.298" width="51.544" height="15.208"/>
	</g>
</g>
<g>
	<g>
		<rect x="38.831" y="324.023" width="51.545" height="15.208"/>
	</g>
</g>
<g>
	<g>
		<rect x="115.388" y="324.023" width="51.544" height="15.208"/>
	</g>
</g>
<g>
	<g>
		<rect x="191.946" y="324.023" width="51.544" height="15.208"/>
	</g>
</g>
<g>
	<g>
		<rect x="268.503" y="324.023" width="51.544" height="15.208"/>
	</g>
</g>
<g>
	<g>
		<rect x="345.07" y="324.023" width="51.544" height="15.208"/>
	</g>
</g>
<g>
	<g>
		<rect x="421.628" y="324.023" width="51.544" height="15.208"/>
	</g>
</g>
<g>
	<g>
		<rect x="38.831" y="385.747" width="51.545" height="15.208"/>
	</g>
</g>
<g>
	<g>
		<rect x="115.388" y="385.747" width="51.544" height="15.208"/>
	</g>
</g>
<g>
	<g>
		<rect x="191.946" y="385.747" width="51.544" height="15.208"/>
	</g>
</g>
<g>
	<g>
		<rect x="268.503" y="385.747" width="51.544" height="15.208"/>
	</g>
</g>
<g>
	<g>
		<rect x="345.07" y="385.747" width="51.544" height="15.208"/>
	</g>
</g>
<g>
	<g>
		<rect x="421.628" y="385.747" width="51.544" height="15.208"/>
	</g>
</g>
</svg>